<!DOCTYPE svg PUBLIC "-//W3C//DTD SVG 1.1//EN" "http://www.w3.org/Graphics/SVG/1.1/DTD/svg11.dtd">

<!-- Uploaded to: SVG Repo, www.svgrepo.com, Transformed by: SVG Repo Mixer Tools -->
<svg width="800px" height="800px" viewBox="0 -5.5 64 64" version="1.1" xmlns="http://www.w3.org/2000/svg" xmlns:xlink="http://www.w3.org/1999/xlink" xmlns:sketch="http://www.bohemiancoding.com/sketch/ns" fill="#000000">

<g id="SVGRepo_bgCarrier" stroke-width="0"/>

<g id="SVGRepo_tracerCarrier" stroke-linecap="round" stroke-linejoin="round"/>

<g id="SVGRepo_iconCarrier"> <title>Factory</title> <desc>Created with Sketch.</desc> <defs> </defs> <g id="Page-1" stroke-width="0.8960000000000001" fill="none" fill-rule="evenodd" sketch:type="MSPage"> <g id="Factory" sketch:type="MSLayerGroup" transform="translate(1.000000, 1.000000)" stroke="#0f0f0f" stroke-width="1.3"> <path d="M60,20 L56,20 L56,0 L47,0 L47,27.5 L34,20.6 L34,27.5 L22,20.6 L22,27.5 L11,20.6 L11,27.5 L2,20.6 C0.9,20.6 0,21.5 0,22.6 L0,48.1 C0,49.2 0.9,50.1 2,50.1 L60,50.1 C61.1,50.1 62,49.2 62,48.1 L62,22.1 C62,20.9 61.1,20 60,20 L60,20 Z" id="Shape" sketch:type="MSShapeGroup"> </path> <rect id="Rectangle-path" sketch:type="MSShapeGroup" x="4" y="32" width="4" height="4"> </rect> <rect id="Rectangle-path" sketch:type="MSShapeGroup" x="14" y="32" width="4" height="4"> </rect> <rect id="Rectangle-path" sketch:type="MSShapeGroup" x="25" y="32" width="4" height="4"> </rect> <rect id="Rectangle-path" sketch:type="MSShapeGroup" x="37" y="32" width="4" height="4"> </rect> <path d="M0,46.1 L62,46.1" id="Shape" sketch:type="MSShapeGroup"> </path> </g> </g> </g>

</svg>