<!DOCTYPE svg PUBLIC "-//W3C//DTD SVG 1.1//EN" "http://www.w3.org/Graphics/SVG/1.1/DTD/svg11.dtd">

<!-- Uploaded to: SVG Repo, www.svgrepo.com, Transformed by: SVG Repo Mixer Tools -->
<svg width="800px" height="800px" viewBox="-0.45 -0.45 15.90 15.90" fill="none" xmlns="http://www.w3.org/2000/svg" stroke="#ffffff" stroke-width=".35">

<g id="SVGRepo_bgCarrier" stroke-width="0"/>

<g id="SVGRepo_tracerCarrier" stroke-linecap="round" stroke-linejoin="round" stroke="white" stroke-width="0.09"/>

<g id="SVGRepo_iconCarrier"> <path d="M7.5 4.5L11.5 6.5V14.5H3.5V6.5L7.5 4.5ZM7.5 4.5V0M0 14.5H15M1.5 14.5V8.5H3.5M13.5 14.5V8.5H11.5M6.5 14.5V11.5H8.5V14.5M7.5 0.5H10.5V2.5H7.5M7.5 9.5C6.94772 9.5 6.5 9.05228 6.5 8.5C6.5 7.94772 6.94772 7.5 7.5 7.5C8.05228 7.5 8.5 7.94772 8.5 8.5C8.5 9.05228 8.05228 9.5 7.5 9.5Z" stroke="rgb(35, 35, 35)"/> </g>

</svg>